<svg height="496pt" viewBox="0 0 496 496" width="496pt" xmlns="http://www.w3.org/2000/svg"><g fill="#f0bc5e"><path d="m320 336c0 17.671875-14.328125 32-32 32s-32-14.328125-32-32 14.328125-32 32-32 32 14.328125 32 32zm0 0"/><path d="m240 336c0 17.671875-14.328125 32-32 32s-32-14.328125-32-32 14.328125-32 32-32 32 14.328125 32 32zm0 0"/><path d="m352 248h80v32h-80zm0 0"/><path d="m272 136h160v64h-160zm0 0"/><path d="m8 8h480v72h-480zm0 0"/></g><path d="m480 0h-464c-8.824219 0-16 7.175781-16 16v368h120c0 8.824219 7.175781 16 16 16h17.929688c1.605468 5.160156 4.125 10.023438 7.695312 14.183594l30.71875 35.839844c2.265625 2.640624 4.855469 4.898437 7.65625 6.832031v39.144531h96v-39.136719c2.800781-1.933593 5.390625-4.191406 7.65625-6.832031l30.710938-35.839844c3.570312-4.160156 6.097656-9.023437 7.703124-14.183594h17.929688c8.824219 0 16-7.175781 16-16h120v-368.007812c0-8.824219-7.175781-16-16-16zm-344 384v-48h16v48zm64-48c0-4.414062 3.585938-8 8-8s8 3.585938 8 8-3.585938 8-8 8-8-3.585938-8-8zm21.414062 80h53.171876l11.300781 28.273438c-3.757813 2.335937-8.070313 3.726562-12.605469 3.726562h-50.5625c-4.535156 0-8.847656-1.390625-12.605469-3.726562zm66.585938-72c-4.414062 0-8-3.585938-8-8s3.585938-8 8-8 8 3.585938 8 8-3.585938 8-8 8zm-72 119.375c2.207031.378906 4.441406.625 6.71875.625h17.28125v16h-24zm64 16.625h-24v-16h17.28125c2.269531 0 4.511719-.246094 6.71875-.625zm48-91.832031c0 5.71875-2.054688 11.265625-5.785156 15.617187l-24.0625 28.070313-9.9375-24.832031 6.890625-48.214844c9.757812-3.054688 16.894531-12.066406 16.894531-22.808594 0-13.230469-10.769531-24-24-24s-24 10.769531-24 24c0 10.054688 6.230469 18.65625 15.023438 22.222656l-5.96875 41.777344h-50.117188l-5.96875-41.777344c8.800781-3.566406 15.03125-12.167968 15.03125-22.222656 0-13.230469-10.769531-24-24-24s-24 10.769531-24 24c0 10.742188 7.144531 19.753906 16.886719 22.800781l6.890625 48.222657-9.9375 24.832031-24.0625-28.070313c-3.722656-4.351562-5.777344-9.90625-5.777344-15.617187v-92.167969c0-17.648438 11.566406-32.496094 27.464844-37.792969l15.121094 37.792969h74.828124l15.121094-37.792969c15.898438 5.296875 27.464844 20.144531 27.464844 37.792969zm-43.816406-132.167969-9.597656 24h-53.171876l-9.597656-24zm75.816406 128h-16v-48h16zm-16-64v-24c0-30.871094-25.128906-56-56-56h-32v-128h192v224h-72c0-8.824219-7.175781-16-16-16zm136 48h-104v-16h88v-256h-224v144h-32c-30.871094 0-56 25.128906-56 56v24h-16c-8.824219 0-16 7.175781-16 16v32h-104v-352h464zm0 0"/><path d="m32 32h16v16h-16zm0 0"/><path d="m64 32h16v16h-16zm0 0"/><path d="m96 32h16v16h-16zm0 0"/><path d="m66.34375 98.34375-29.65625 29.65625 29.65625 29.65625 11.3125-11.3125-18.34375-18.34375 18.34375-18.34375zm0 0"/><path d="m189.65625 157.65625 29.65625-29.65625-29.65625-29.65625-11.3125 11.3125 18.34375 18.34375-18.34375 18.34375zm0 0"/><path d="m94.34375 150.339844 51.996094-51.996094 11.3125 11.3125-51.996094 52zm0 0"/><path d="m32 176h192v16h-192zm0 0"/><path d="m32 208h192v16h-192zm0 0"/><path d="m32 240h16v16h-16zm0 0"/><path d="m64 240h16v16h-16zm0 0"/><path d="m96 240h16v16h-16zm0 0"/><path d="m272 128h160v16h-160zm0 0"/><path d="m272 160h72v16h-72zm0 0"/><path d="m360 160h72v16h-72zm0 0"/><path d="m272 192h160v16h-160zm0 0"/><path d="m352 240h80v16h-80zm0 0"/><path d="m352 272h80v16h-80zm0 0"/></svg>