<svg id="Layer_1" enable-background="new 0 0 512 512" height="512" viewBox="0 0 512 512" width="512" xmlns="http://www.w3.org/2000/svg"><g><path d="m352.4 447.733h-192.8c-8.284 0-15-6.716-15-15v-64.267c0-8.284 6.716-15 15-15h192.8c8.284 0 15 6.716 15 15v64.267c0 8.285-6.715 15-15 15z" fill="#dfe2f4"/><path d="m367.4 432.733v-64.267c0-8.284-6.716-15-15-15h-96.4v94.267h96.4c8.285 0 15-6.715 15-15z" fill="#c2d1ec"/><path d="m464.866 383.467h-417.733c-25.802 0-47.133-20.852-47.133-47.134v-289.199c0-25.748 20.801-47.134 47.133-47.134h417.733c25.799 0 47.134 20.846 47.134 47.134v289.199c0 25.75-20.799 47.134-47.134 47.134z" fill="#f7f3fb"/><path d="m512 336.333v-289.199c0-26.288-21.335-47.134-47.134-47.134h-208.866v383.467h208.866c26.335 0 47.134-21.384 47.134-47.134z" fill="#dfe2f4"/><path d="m432.733 319.2h-353.466c-8.284 0-15-6.716-15-15v-224.933c0-8.284 6.716-15 15-15h353.467c8.284 0 15 6.716 15 15v224.933c-.001 8.284-6.716 15-15.001 15z" fill="#0080d5"/><path d="m447.733 304.2v-224.933c0-8.284-6.716-15-15-15h-176.733v254.933h176.733c8.285 0 15-6.716 15-15z" fill="#002f84"/><path d="m226.258 236.347c-6.893-4.595-8.756-13.908-4.161-20.801l42.845-64.267c4.595-6.895 13.908-8.756 20.801-4.16 6.894 4.595 8.756 13.908 4.16 20.801l-42.844 64.267c-2.785 4.177-11.619 10.282-20.801 4.16z" fill="#a6f216"/><path d="m285.743 147.119c-6.893-4.596-16.206-2.734-20.801 4.16l-8.942 13.413v54.082l33.903-50.855c4.596-6.892 2.734-16.205-4.16-20.8z" fill="#64cf51"/><path d="m416.667 512h-321.334c-8.284 0-15-6.716-15-15v-32.134c0-25.989 21.144-47.133 47.133-47.133h257.066c25.989 0 47.134 21.144 47.134 47.133v32.134c.001 8.284-6.715 15-14.999 15z" fill="#f7f3fb"/><path d="m165.06 234.473-32.133-32.133c-5.858-5.857-5.854-15.361 0-21.213l32.133-32.134c5.857-5.857 15.355-5.857 21.213 0s5.858 15.355 0 21.213l-21.527 21.527 21.526 21.526c5.858 5.857 5.858 15.355 0 21.213-5.869 5.87-15.365 5.848-21.212.001z" fill="#a6f216"/><path d="m325.727 234.473c-5.858-5.858-5.858-15.355 0-21.213l21.527-21.526-21.527-21.527c-5.858-5.857-5.858-15.355 0-21.213 5.857-5.857 15.355-5.857 21.213 0l32.134 32.134c5.858 5.856 5.854 15.361 0 21.213l-32.134 32.133c-5.859 5.857-15.358 5.856-21.213-.001z" fill="#64cf51"/><path d="m431.667 497v-32.134c0-25.989-21.145-47.133-47.134-47.133h-128.533v94.267h160.667c8.284 0 15-6.716 15-15z" fill="#dfe2f4"/></g></svg>