<?xml version="1.0"?>
<svg xmlns="http://www.w3.org/2000/svg" height="512px" viewBox="0 0 496.0016 496" width="512px"><g><g fill="#f0bc5e"><path d="m432 320c0 17.675781-14.324219 32-32 32-17.671875 0-32-14.324219-32-32 0-17.671875 14.328125-32 32-32 17.675781 0 32 14.328125 32 32zm0 0" data-original="#F0BC5E"/><path d="m320 360c0 17.675781-14.324219 32-32 32-17.671875 0-32-14.324219-32-32 0-17.671875 14.328125-32 32-32 17.675781 0 32 14.328125 32 32zm0 0" data-original="#F0BC5E"/><path d="m200 176c0 17.675781-14.324219 32-32 32-17.671875 0-32-14.324219-32-32 0-17.671875 14.328125-32 32-32 17.675781 0 32 14.328125 32 32zm0 0" data-original="#F0BC5E"/><path d="m304 256c0 17.675781-14.324219 32-32 32-17.671875 0-32-14.324219-32-32 0-17.671875 14.328125-32 32-32 17.675781 0 32 14.328125 32 32zm0 0" data-original="#F0BC5E"/><path d="m112 256c0 17.675781-14.324219 32-32 32-17.671875 0-32-14.324219-32-32 0-17.671875 14.328125-32 32-32 17.675781 0 32 14.328125 32 32zm0 0" data-original="#F0BC5E"/><path d="m408 136c0 30.929688-25.070312 56-56 56-30.925781 0-56-25.070312-56-56 0-30.925781 25.074219-56 56-56 30.929688 0 56 25.074219 56 56zm0 0" data-original="#F0BC5E"/></g><path d="m415.96875 196.167969c15.128906-16.121094 24.03125-37.558594 24.03125-60.167969 0-24.992188-10.6875-48.894531-29.320312-65.574219-18.605469-16.671875-43.621094-24.609375-68.6875-21.863281-36.222657 4.007812-66.558594 31.125-75.320313 65.957031-20.855469-5.503906-44-1.300781-61.496094 11.671875-9.140625-4.0625-19.125-6.191406-29.175781-6.191406-30.957031 0-58.46875 20.175781-68.207031 49-3.933594-.664062-7.878907-1-11.792969-1-39.703125 0-72 32.304688-72 72 0 2.585938.167969 5.234375.496094 8.015625-19.679688 21.9375-28.078125 51.089844-23.085938 80.625 6.847656 40.519531 40.136719 72.761719 80.933594 78.417969 19.625 2.71875 38.921875-.402344 56.242188-9.035156 16.640624 21.402343 42.105468 33.976562 69.792968 33.976562h.117188c6.5625 0 12.632812 2.449219 17.097656 6.898438 4.144531 4.117187 6.414062 9.597656 6.414062 15.445312v41.65625h48v-13.757812c0-28.984376 15.867188-56.105469 42.449219-72.5625 5.089844-3.152344 9.871094-6.773438 14.296875-10.816407 5.296875.769531 10.320313 1.136719 15.246094 1.136719 61.761719 0 112-50.238281 112-112 0-36.742188-18.191406-71.015625-48.03125-91.832031zm-135.261719-70.429688c4.398438-31.953125 30.910157-57.722656 63.054688-61.28125 2.792969-.304687 5.574219-.457031 8.335937-.457031 17.777344 0 34.535156 6.367188 47.910156 18.34375 15.25 13.65625 23.992188 33.210938 23.992188 53.65625 0 25.5625-13.773438 49.433594-35.941406 62.289062-4.007813 2.328126-7.105469 5.75-9.191406 9.710938h-2.867188v-40h8c13.234375 0 24-10.765625 24-24 0-13.230469-10.765625-24-24-24-13.230469 0-24 10.769531-24 24v8h-16v-8c0-13.230469-10.765625-24-24-24-13.230469 0-24 10.769531-24 24 0 13.234375 10.769531 24 24 24h8v40h-2.839844c-2.070312-3.941406-5.152344-7.359375-9.132812-9.664062-25.496094-14.734376-39.355469-43.230469-35.320313-72.597657zm71.292969 146.261719c-10.414062 0-19.214844-6.710938-22.527344-16h45.050782c-3.304688 9.289062-12.105469 16-22.523438 16zm24-32h-48v-16h48zm-48-88h-8c-4.414062 0-8-3.589844-8-8 0-4.40625 3.585938-8 8-8 4.417969 0 8 3.59375 8 8zm32 56h-16v-40h16zm16-56v-8c0-4.40625 3.585938-8 8-8 4.417969 0 8 3.59375 8 8 0 4.410156-3.582031 8-8 8zm-24 232c-5.222656 0-10.628906-.496094-16.535156-1.527344l-4.085938-.710937-2.9375 2.925781c-4.351562 4.335938-9.191406 8.167969-14.414062 11.394531-30.648438 18.976563-49.210938 50.214844-50 83.917969h-16.027344v-25.664062c0-10.128907-3.949219-19.640626-11.125-26.78125-7.480469-7.457032-17.5625-11.554688-28.6875-11.554688-.066406 0-.128906 0-.1875 0-24.398438 0-46.941406-12.246094-60.320312-32.765625l-4.199219-6.441406-6.597657 3.9375c-15.769531 9.40625-33.847656 13.03125-52.34375 10.46875-33.953124-4.703125-61.648437-31.519531-67.34375-65.230469-4.371093-25.785156 3.476563-51.191406 21.503907-69.71875l2.832031-2.90625-.671875-4c-.578125-3.398438-.859375-6.453125-.859375-9.34375 0-30.878906 25.128906-56 56-56 5.066406 0 10.203125.730469 15.28125 2.167969l8.199219 2.328125 1.800781-8.335938c5.511719-25.589844 28.527344-44.160156 54.71875-44.160156 9.210938 0 18.355469 2.296875 26.441406 6.632812l4.839844 2.609376 4.167969-3.601563c14.417969-12.449219 34.816406-16.472656 52.738281-11.121094-.777344 13.035157 1.316406 25.769531 5.878906 37.480469h-79.542968c-3.3125-9.289062-12.113282-16-22.53125-16-13.230469 0-24 10.769531-24 24 0 13.234375 10.769531 24 24 24 10.417968 0 19.21875-6.710938 22.53125-16h25.476562v32h-64v16h80v-48h46.3125c7.394531 11.351562 17.425781 21.089844 29.707031 28.183594 2.460938 1.425781 3.980469 4.042968 3.980469 6.824218v28.992188c0 19.3125 13.769531 35.472656 32 39.191406v8.808594h-48v16h48v16h33.472656c3.3125 9.289062 12.113282 16 22.527344 16 13.234375 0 24-10.765625 24-24 0-13.230469-10.765625-24-24-24-10.414062 0-19.214844 6.710938-22.527344 16h-17.472656v-24.808594c18.234375-3.71875 32-19.871094 32-39.191406v-28.953125c0-2.847656 1.523438-5.4375 4.089844-6.917969 2.566406-1.488281 4.953125-3.207031 7.328125-4.929687 27.542969 17.5625 44.582031 47.96875 44.582031 80.800781 0 52.9375-43.0625 96-96 96zm-176-208c0 4.410156-3.582031 8-8 8-4.414062 0-8-3.589844-8-8 0-4.40625 3.585938-8 8-8 4.417969 0 8 3.59375 8 8zm216 144c0-4.40625 3.585938-8 8-8 4.417969 0 8 3.59375 8 8 0 4.410156-3.582031 8-8 8-4.414062 0-8-3.589844-8-8zm0 0" data-original="#000000" class="active-path" data-old_color="#000000" style="fill:#FFFFFF"/><path d="m344 0h16v32h-16zm0 0" data-original="#000000" class="active-path" data-old_color="#000000" style="fill:#FFFFFF"/><path d="m250.1875 45.5 11.316406-11.3125 22.621094 22.628906-11.3125 11.3125zm0 0" data-original="#000000" class="active-path" data-old_color="#000000" style="fill:#FFFFFF"/><path d="m456 128h40v16h-40zm0 0" data-original="#000000" class="active-path" data-old_color="#000000" style="fill:#FFFFFF"/><path d="m419.875 56.808594 22.628906-22.628906 11.3125 11.3125-22.628906 22.628906zm0 0" data-original="#000000" class="active-path" data-old_color="#000000" style="fill:#FFFFFF"/><path d="m264 296h16v16h-16zm0 0" data-original="#000000" class="active-path" data-old_color="#000000" style="fill:#FFFFFF"/><path d="m288 336c-10.414062 0-19.214844 6.710938-22.527344 16h-81.472656v-88h16v48h48v-16h-32v-32h33.472656c3.3125 9.289062 12.113282 16 22.527344 16 13.234375 0 24-10.765625 24-24 0-13.230469-10.765625-24-24-24-10.414062 0-19.214844 6.710938-22.527344 16h-146.941406c-3.3125-9.289062-12.113281-16-22.53125-16-13.230469 0-24 10.769531-24 24 0 13.234375 10.769531 24 24 24 10.417969 0 19.21875-6.710938 22.53125-16h33.46875v32h-72v16h88v-48h16v64h-40v16h40v24h97.472656c3.3125 9.289062 12.113282 16 22.527344 16 13.234375 0 24-10.765625 24-24 0-13.230469-10.765625-24-24-24zm-16-88c4.417969 0 8 3.59375 8 8 0 4.410156-3.582031 8-8 8-4.414062 0-8-3.589844-8-8 0-4.40625 3.585938-8 8-8zm-192 16c-4.414062 0-8-3.589844-8-8 0-4.40625 3.585938-8 8-8 4.417969 0 8 3.59375 8 8 0 4.410156-3.582031 8-8 8zm208 104c-4.414062 0-8-3.589844-8-8 0-4.40625 3.585938-8 8-8 4.417969 0 8 3.59375 8 8 0 4.410156-3.582031 8-8 8zm0 0" data-original="#000000" class="active-path" data-old_color="#000000" style="fill:#FFFFFF"/><path d="m32 296h16v16h-16zm0 0" data-original="#000000" class="active-path" data-old_color="#000000" style="fill:#FFFFFF"/><path d="m120 216h16v16h-16zm0 0" data-original="#000000" class="active-path" data-old_color="#000000" style="fill:#FFFFFF"/><path d="m96 328h16v16h-16zm0 0" data-original="#000000" class="active-path" data-old_color="#000000" style="fill:#FFFFFF"/></g> </svg>
