<?xml version="1.0"?>
<svg xmlns="http://www.w3.org/2000/svg" height="512px" viewBox="0 0 496 496" width="512px" class=""><g><g fill="#f0bc5e"><path d="m272 488h-48v-72l24-16 24 16zm0 0" data-original="#F0BC5E"/><path d="m312 104h-128v-24c0-4.414062 3.585938-8 8-8h112c4.414062 0 8 3.585938 8 8zm0 0" data-original="#F0BC5E"/><path d="m152 144v96h192v-96zm136 64h-80c-8.839844 0-16-7.160156-16-16s7.160156-16 16-16h80c8.839844 0 16 7.160156 16 16s-7.160156 16-16 16zm0 0" data-original="#F0BC5E"/></g><path d="m401.199219 361.425781-97.199219-16.203125v-27.40625c22.136719-15.976562 37.207031-41.097656 39.59375-69.816406h24.40625c13.230469 0 24-10.769531 24-24v-24h-16v24c0 4.414062-3.585938 8-8 8h-212.710938l-40 72h-19.289062v-24h-16v24h-16v-48h-16v48h-16v-80h-16v80h-16v16h124.710938l30.65625-55.183594c5.800781 21.632813 18.945312 40.230469 36.632812 53v27.40625l-97.199219 16.191406c-27.121093 4.53125-46.800781 27.753907-46.800781 55.25v79.335938h400v-79.335938c0-27.496093-19.679688-50.71875-46.800781-55.238281zm-33.199219 118.574219h-240v-28.921875c0-26.300781-4.425781-52.085937-13.121094-76.78125l54.015625-9 17.679688 88.414063 61.425781-43.878907 61.425781 43.871094 17.679688-88.414063 54.015625 9c-8.6875 24.695313-13.121094 50.480469-13.121094 76.78125zm-56.6875-117.34375-12.726562 63.640625-38.242188-27.320313 38.410156-38.410156zm-142.90625-114.65625h159.195312c-4.035156 40.367188-38.1875 72-79.59375 72s-75.574218-31.632812-79.601562-72zm79.59375 88c14.289062 0 27.808594-3.222656 40-8.839844v21.527344l-40 40-40-40v-21.527344c12.191406 5.617188 25.710938 8.839844 40 8.839844zm-50.742188 24.566406 38.40625 38.410156-38.238281 27.320313-12.730469-63.640625zm-133.257812 56.097656c0-19.632812 14.054688-36.230468 33.425781-39.464843l1.382813-.230469c8.71875 23.800781 13.191406 48.6875 13.191406 74.109375v28.921875h-48zm368 63.335938h-48v-28.921875c0-25.421875 4.472656-50.308594 13.191406-74.101563l1.382813.230469c19.371093 3.226563 33.425781 19.824219 33.425781 39.457031zm0 0" data-original="#000000" class="active-path" data-old_color="#000000" style="fill:#FFFFFF"/><path d="m288 264h-16c0 13.230469-10.769531 24-24 24s-24-10.769531-24-24h-16c0 22.054688 17.945312 40 40 40s40-17.945312 40-40zm0 0" data-original="#000000" class="active-path" data-old_color="#000000" style="fill:#FFFFFF"/><path d="m208 184h56v-16h-56c-13.230469 0-24 10.769531-24 24s10.769531 24 24 24h80c13.230469 0 24-10.769531 24-24s-10.769531-24-24-24h-8v16h8c4.414062 0 8 3.585938 8 8s-3.585938 8-8 8h-80c-4.414062 0-8-3.585938-8-8s3.585938-8 8-8zm0 0" data-original="#000000" class="active-path" data-old_color="#000000" style="fill:#FFFFFF"/><path d="m480 168h16v16h-16zm0 0" data-original="#000000" class="active-path" data-old_color="#000000" style="fill:#FFFFFF"/><path d="m480 200h16v16h-16zm0 0" data-original="#000000" class="active-path" data-old_color="#000000" style="fill:#FFFFFF"/><path d="m360 264h136v16h-136zm0 0" data-original="#000000" class="active-path" data-old_color="#000000" style="fill:#FFFFFF"/><path d="m360 296h136v16h-136zm0 0" data-original="#000000" class="active-path" data-old_color="#000000" style="fill:#FFFFFF"/><path d="m480 328h16v16h-16zm0 0" data-original="#000000" class="active-path" data-old_color="#000000" style="fill:#FFFFFF"/><path d="m448 328h16v16h-16zm0 0" data-original="#000000" class="active-path" data-old_color="#000000" style="fill:#FFFFFF"/><path d="m416 328h16v16h-16zm0 0" data-original="#000000" class="active-path" data-old_color="#000000" style="fill:#FFFFFF"/><path d="m480 72v-72h-16v72h-16v-48h-16v48h-16v-32h-16v32h-12l-15.703125 20.945312c-10.640625-38.898437-43.496094-69.273437-84.296875-75.625v-1.320312c0-8.824219-7.175781-16-16-16h-48c-8.824219 0-16 7.175781-16 16v1.320312c-11.703125 1.824219-22.734375 5.625-32.808594 11.039063-19.335937-18.261719-44.34375-28.359375-71.191406-28.359375-57.34375 0-104 46.65625-104 104s46.65625 104 104 104v16c0 13.230469 10.769531 24 24 24h8v-16h-8c-4.414062 0-8-3.585938-8-8v-64c0-4.414062 3.585938-8 8-8h240c4.414062 0 8 3.585938 8 8v24h27.054688l16 32h44.945312v-16h-35.054688l-8-16h43.054688v-16h-72v-8c0-10.414062-6.710938-19.214844-16-22.527344v-17.472656c0-1.6875-.160156-3.34375-.238281-5.015625l20.238281-26.984375h100v-16zm-256 0v-56h48v56h16v-38.527344c41.007812 7.589844 72 44.015625 72 86.527344v16h-16v-32h-192v32h-16v-16c0-42.519531 30.984375-78.921875 72-86.519531v38.519531zm104 64h-160v-16h160zm-208-16v1.703125c-4.390625 3.960937-10.03125 6.296875-16 6.296875-13.230469 0-24-10.769531-24-24s10.769531-24 24-24c8.3125 0 15.785156 4.175781 20.175781 11.039062-2.710937 9.226563-4.175781 18.953126-4.175781 28.960938zm-104-16c0-48.519531 39.480469-88 88-88 21.367188 0 41.390625 7.480469 57.320312 21.222656-4.304687 3.28125-8.3125 6.929688-12.054687 10.824219-12.777344-10.375-28.554687-16.046875-45.265625-16.046875-16.097656 0-31.34375 5.238281-44.113281 15.167969l9.816406 12.640625c9.9375-7.730469 21.800781-11.808594 34.296875-11.808594 12.960938 0 25.183594 4.382812 35.097656 12.40625-3.128906 4.433594-5.953125 9.082031-8.371094 13.976562-7.238281-6.511718-16.71875-10.382812-26.726562-10.382812-22.054688 0-40 17.945312-40 40s17.945312 40 40 40c2.289062 0 4.542969-.246094 6.769531-.632812-4.175781 4.320312-6.769531 10.167968-6.769531 16.632812-30.871094 0-56-25.128906-56-56 0-12.496094 4.078125-24.359375 11.808594-34.296875l-12.640625-9.816406c-9.929688 12.769531-15.167969 28.015625-15.167969 44.113281 0 39.703125 32.296875 72 72 72v16c-48.519531 0-88-39.480469-88-88zm0 0" data-original="#000000" class="active-path" data-old_color="#000000" style="fill:#FFFFFF"/></g> </svg>
